<svg xmlns="http://www.w3.org/2000/svg" version="1.1" xmlns:xlink="http://www.w3.org/1999/xlink" xmlns:svgjs="http://svgjs.dev/svgjs" width="2000" height="2287" viewBox="0 0 2000 2287"><g transform="matrix(1,0,0,1,-0.6432962349002764,0.9276207366306153)"><svg viewBox="0 0 216 247" data-background-color="#282634" preserveAspectRatio="xMidYMid meet" height="2287" width="2000" xmlns="http://www.w3.org/2000/svg" xmlns:xlink="http://www.w3.org/1999/xlink"><g id="tight-bounds" transform="matrix(1,0,0,1,0.06947599336922394,-0.09997365579206985)"><svg viewBox="0 0 215.8609257142857 247.2" height="247.2" width="215.8609257142857"><g><svg viewBox="0 0 215.8609257142857 247.2" height="247.2" width="215.8609257142857"><g><svg viewBox="0 0 215.8609257142857 247.2" height="247.2" width="215.8609257142857"><g id="textblocktransform"><svg viewBox="0 0 215.8609257142857 247.2" height="247.2" width="215.8609257142857" id="textblock"><g><svg viewBox="0 0 215.8609257142857 247.2" height="247.2" width="215.8609257142857"><path d="M215.356 53.02C214.341 27.36 211.449 20.227 211.449 20.227 202.569-6.202 191.487-0.506 181.532 3.292 163.955 3.446 146.45 9.091 128.914 12.119 92.107 12.581 54.985 4.986 18.361 23.717 14.921 29.464-3.569 24.846 0.612 56.304 1.708 69.39 5.706 83.913 5.584 95.922 6.132 98.026 6.894 93.202 7.218 96.23 8.355 104.39 10.212 100.541 11.734 105.365 9.613 118.246 11.135 128.971 12.587 140.21 10.029 143.135 6.752 141.749 5.28 151.449 5.128 158.479 4.306 157.145 3.403 156.837 2.743 156.632 1.414 157.402 1.637 159.608 2.398 167.152-0.87 171.514 1.18 178.904-0.23 186.91 2.154 193.838 1.83 202.511 1.789 204.255 2.012 205.744 2.368 206.154 3.94 208.361 1.647 212.672 1.891 217.342 18.026 249.262 35.531 227.195 52.063 241.872 56.355 231.608 53.128 245.516 54.843 243.36 56.183 240.846 57.157 251.263 58.669 245.362 58.903 243.668 58.547 239.665 59.379 240.435 59.816 240.846 60.201 240.743 60.262 238.382 60.354 234.841 59.552 237.048 59.339 235.201 61.642 225.861 61.074 248.081 63.236 247.158 63.134 244.438 62.505 240.538 63.794 241.051 65.073 237.151 65.113 233.918 66.25 242.693 66.29 244.592 66.493 245.926 66.818 246.85 70.37 237.305 73.901 250.237 77.626 245.926 79.909 241.205 82.101 248.492 84.415 246.696 85.227 245.259 86.049 242.693 86.83 247.004 96.4 247.928 106.599 244.079 115.671 247.158 139.915 241.41 165.823 249.518 191.386 241.923 197.414 238.998 203.675 234.841 209.551 231.506 209.551 231.506 214.31 222.371 214.31 181.316S215.325 145.393 215.477 112.703C215.63 80.013 216.34 78.679 215.325 53.02Z" opacity="1" fill="#ff4057" data-fill-palette-color="tertiary"></path><g transform="matrix(1,0,0,1,55.76832,26.230666666666668)"><svg width="104.32428571428571" viewBox="4.550000190734863 -35 18.75 35" height="194.73866666666666" data-palette-color="#282634"><path d="M23.3-3.25L23.3 0 4.55 0 4.55-35 8.3-35 8.3-3.25 23.3-3.25Z" opacity="1" transform="matrix(1,0,0,1,0,0)" fill="#282634" class="wordmark-text-0" data-fill-palette-color="quaternary" id="text-0"></path></svg></g></svg></g></svg></g></svg></g><g></g></svg></g><defs></defs></svg><rect width="215.8609257142857" height="247.2" fill="none" stroke="none" visibility="hidden"></rect></g></svg></g></svg>