<?xml version="1.0" encoding="UTF-8" standalone="no"?>
<svg 
xmlns="http://www.w3.org/2000/svg" version="1.1" xmlns:xlink="http://www.w3.org/1999/xlink" xmlns:svgjs="http://svgjs.dev/svgjs" width="2000" height="1598" viewBox="0 0 2000 1598">
<g transform="matrix(1,0,0,1,-0.24332577475433936,0.648158258476542)">
<svg viewBox="0 0 309 247" data-background-color="#282634" preserveAspectRatio="xMidYMid meet" height="1598" width="2000" xmlns="http://www.w3.org/2000/svg" xmlns:xlink="http://www.w3.org/1999/xlink">
<g id="tight-bounds" transform="matrix(1,0,0,1,0.037593832199547705,-0.09997365579206985)">
<svg viewBox="0 0 308.9248123356009 247.2" height="247.2" width="308.9248123356009">
<g>
<svg viewBox="0 0 308.9248123356009 247.2" height="247.2" width="308.9248123356009">
<g>
<svg viewBox="0 0 308.9248123356009 247.2" height="247.2" width="308.9248123356009">
<g id="textblocktransform">
<svg viewBox="0 0 308.9248123356009 247.2" height="247.2" width="308.9248123356009" id="textblock">
<g>
<svg viewBox="0 0 308.9248123356009 247.2" height="247.2" width="308.9248123356009">
<path d="M308.202 53.02C306.749 27.36 302.61 20.227 302.61 20.227 289.902-6.202 274.043-0.506 259.796 3.292 234.641 3.446 209.589 9.091 184.493 12.119 131.817 12.581 78.691 4.986 26.277 23.717 21.353 29.464-5.108 24.846 0.876 56.304 2.444 69.39 8.166 83.913 7.992 95.922 8.776 98.026 9.866 93.202 10.33 96.23 11.957 104.39 14.615 100.541 16.793 105.365 13.758 118.246 15.936 128.971 18.013 140.21 14.353 143.135 9.662 141.749 7.556 151.449 7.339 158.479 6.162 157.145 4.87 156.837 3.926 156.632 2.023 157.402 2.343 159.608 3.432 167.152-1.245 171.514 1.689 178.904-0.33 186.91 3.083 193.838 2.619 202.511 2.56 204.255 2.88 205.744 3.388 206.154 5.639 208.361 2.357 212.672 2.706 217.342 25.798 249.262 50.85 227.195 74.508 241.872 80.652 231.608 76.033 245.516 78.488 243.36 80.405 240.846 81.799 251.263 83.963 245.362 84.297 243.668 83.789 239.665 84.98 240.435 85.604 240.846 86.156 240.743 86.243 238.382 86.374 234.841 85.227 237.048 84.922 235.201 88.218 225.861 87.405 248.081 90.499 247.158 90.353 244.438 89.453 240.538 91.297 241.051 93.127 237.151 93.185 233.918 94.812 242.693 94.87 244.592 95.16 245.926 95.625 246.85 100.708 237.305 105.762 250.237 111.092 245.926 114.36 241.205 117.497 248.492 120.808 246.696 121.97 245.259 123.147 242.693 124.265 247.004 137.96 247.928 152.556 244.079 165.54 247.158 200.236 241.41 237.314 249.518 273.898 241.923 282.524 238.998 291.485 234.841 299.894 231.506 299.894 231.506 306.706 222.371 306.706 181.316S308.158 145.393 308.376 112.703C308.594 80.013 309.61 78.679 308.158 53.02Z" opacity="1" fill="#ff4057" data-fill-palette-color="tertiary"></path><g transform="matrix(1,0,0,1,55.76832,26.230666666666668)"><svg width="197.3881723356009" viewBox="4 -29.399999618530273 29.799999237060547 29.399999618530273" height="194.73866666666666" data-palette-color="#282634">
<path d="M27.8 0L4 0 4.5-4 4.5-29.4 11.1-29.4 11.1-4.8 31.8-4.8 33.8-0.55Q33.8-0.35 32.45-0.18 31.1 0 27.8 0L27.8 0Z" opacity="1" transform="matrix(1,0,0,1,0,0)" fill="#282634" class="wordmark-text-0" data-fill-palette-color="quaternary" id="text-0">
</path></svg></g></svg></g></svg></g></svg></g><g></g></svg></g><defs></defs></svg><rect width="308.9248123356009" height="247.2" fill="none" stroke="none" visibility="hidden"></rect></g></svg></g></svg>